<svg width="26" height="25" viewBox="0 0 26 25" fill="none" xmlns="http://www.w3.org/2000/svg">
<path fill-rule="evenodd" clip-rule="evenodd" d="M24.2091 5.09137C24.9868 5.2829 25.4627 6.07223 25.2654 6.84995L21.7134 20.9999C21.5509 21.6441 20.9763 22.0968 20.3089 22.0968C20.1928 22.0968 20.0709 22.0794 19.9548 22.0504L10.4713 19.6708C10.094 19.5779 9.7748 19.3399 9.57747 19.0091C9.38014 18.6783 9.3221 18.2894 9.41496 17.9122L12.9669 3.76228C13.1295 3.11805 13.704 2.66534 14.3715 2.66534C14.4876 2.66534 14.6094 2.68276 14.7255 2.71178L24.2091 5.09137ZM7.52514 17.7032C7.21753 18.9452 7.97204 20.2047 9.21407 20.5181L11.6169 21.1159L7.06083 22.7816C6.89832 22.8397 6.73 22.8687 6.56169 22.8687C5.95228 22.8687 5.40672 22.4856 5.19778 21.9168L0.781011 9.84473C0.647521 9.47909 0.659129 9.08442 0.827442 8.73619C0.995755 8.38795 1.28595 8.12098 1.64579 7.98749L9.60293 5.07393C9.76544 5.01589 9.93375 4.98687 10.1021 4.98687C10.3052 4.98687 10.5025 5.0333 10.6825 5.11456L7.52514 17.7032Z" fill="#DEDEDE"/>
</svg>
