<svg width="26" height="25" viewBox="0 0 26 25" fill="none" xmlns="http://www.w3.org/2000/svg">
<path fill-rule="evenodd" clip-rule="evenodd" d="M3.86714 12.7738C3.22218 12.813 2.57405 12.8452 1.93203 12.8383C1.65691 12.8347 1.37916 12.7532 1.12816 12.6598C0.65868 12.4885 0.519727 12.1764 0.713475 11.714C0.826277 11.4394 0.986852 11.1713 1.175 10.9315C1.90342 10.0046 2.83731 9.27043 3.80176 8.57605C5.88321 7.07877 8.14325 5.88663 10.5554 4.79131C13.1104 3.68579 15.7852 2.69574 18.6043 2.21204C19.389 2.07791 20.1883 2.03953 20.981 2.00146L21.0582 1.99775C21.3788 1.98327 21.7094 2.05401 22.0121 2.14361C22.597 2.31488 22.7766 2.67511 22.4999 3.21502C22.292 3.62169 22.0074 4.00483 21.7056 4.36359C21.4765 4.6365 21.2048 4.87898 20.9337 5.1209C20.876 5.1724 20.8183 5.22386 20.7611 5.2756C20.6727 5.35553 20.5424 5.41786 20.4242 5.44053C16.9365 6.08304 13.6377 7.30818 10.4425 8.85257C8.27273 9.90194 6.227 11.1483 4.3136 12.6006C4.19236 12.6931 4.01699 12.7647 3.86714 12.7738ZM23.1663 3.86732L23.3736 4.33278C23.466 4.54025 23.5574 4.74849 23.6489 4.95682C23.8712 5.46301 24.0937 5.96969 24.3302 6.46691C24.4915 6.80535 24.4588 7.12549 24.2823 7.45841C23.9216 8.13613 23.3715 8.67167 22.7928 9.18146C21.4572 10.3573 19.982 11.3539 18.4046 12.193C18.042 12.3865 17.6786 12.5782 17.3136 12.7664C18.3448 13.1577 19.2253 13.9453 19.7097 15.0331C20.6744 17.2 19.6999 19.7387 17.5331 20.7035C15.3662 21.6682 12.8275 20.6936 11.8627 18.5268C11.3871 17.4586 11.3848 16.3014 11.7615 15.2853C9.83456 16.0065 7.85736 16.562 5.81456 16.8454C5.0856 16.9456 4.34032 16.9419 3.60791 16.9239C2.9863 16.9101 2.54847 16.637 2.32608 16.0415C2.11607 15.4761 1.86276 14.9278 1.60475 14.3694C1.49294 14.1274 1.38025 13.8835 1.26982 13.6355C3.39721 13.9021 5.42719 13.4171 7.45078 12.8602C9.84436 12.1984 12.147 11.2843 14.3837 10.203C16.8544 9.00893 19.2282 7.65933 21.3259 5.89624C22.0224 5.31046 22.6541 4.67022 23.1663 3.86732ZM15.7575 18.3954C15.9108 18.7396 16.3154 18.895 16.6596 18.7417C17.0038 18.5885 17.1592 18.1838 17.0059 17.8396C16.8527 17.4954 16.448 17.3401 16.1038 17.4933C15.7596 17.6466 15.6043 18.0512 15.7575 18.3954ZM15.9909 17.2445C17.1537 16.7268 18.1177 15.7676 18.6085 14.4892L17.6961 14.1389C16.9075 16.1931 14.5962 17.2222 12.542 16.4336L12.1918 17.346C13.4702 17.8368 14.8281 17.7622 15.9909 17.2445Z" fill="#DEDEDE"/>
</svg>
