<svg width="24" height="25" viewBox="0 0 24 25" fill="none" xmlns="http://www.w3.org/2000/svg">
<path fill-rule="evenodd" clip-rule="evenodd" d="M20.728 4.81542C19.5759 3.67137 18.2068 2.76897 16.7011 2.16119C15.1955 1.5534 13.5836 1.25248 11.9601 1.27607C8.91241 1.26845 5.98651 2.47184 3.82607 4.62151C1.66563 6.77117 0.447628 9.69103 0.440009 12.7387C0.43239 15.7864 1.63578 18.7123 3.78544 20.8728C5.93511 23.0332 8.85496 24.2512 11.9027 24.2588C12.5594 24.27 13.2012 24.0628 13.7274 23.6697C14.2536 23.2766 14.6344 22.7199 14.81 22.087C14.9219 21.6299 14.9207 21.1524 14.8066 20.6959C14.6925 20.2394 14.4688 19.8176 14.155 19.4669C14.0824 19.3844 14.0351 19.2827 14.0185 19.174C14.002 19.0653 14.017 18.9542 14.0618 18.8537C14.1066 18.7533 14.1792 18.6679 14.2711 18.6075C14.363 18.5471 14.4702 18.5144 14.5802 18.5132H16.4762C18.2608 18.5215 19.9824 17.8544 21.2954 16.6458C22.6085 15.4372 23.4157 13.7767 23.5549 11.9975C23.5977 10.671 23.369 9.34968 22.8829 8.11467C22.3968 6.87965 21.6635 5.75695 20.728 4.81542ZM16.5222 16.2149H14.6261C14.0724 16.2117 13.5296 16.3693 13.0637 16.6686C12.5978 16.9678 12.2287 17.3958 12.0012 17.9007C11.7737 18.4055 11.6976 18.9656 11.7821 19.5128C11.8666 20.0601 12.1081 20.5711 12.4772 20.9838C12.5491 21.0563 12.5999 21.147 12.6242 21.2462C12.6485 21.3454 12.6454 21.4493 12.6151 21.5469C12.5577 21.7882 12.2934 21.9376 11.9371 21.9606C10.6321 21.9438 9.34555 21.6494 8.16312 21.0969C6.98068 20.5444 5.92945 19.7464 5.07935 18.7561C4.22925 17.7657 3.59977 16.6057 3.23277 15.3532C2.86577 14.1007 2.76968 12.7844 2.95088 11.4919C3.27857 9.31998 4.3638 7.33391 6.01463 5.88496C7.66546 4.43602 9.77552 3.61756 11.9716 3.57435H12.0635C13.363 3.55734 14.6528 3.80074 15.8567 4.2902C17.0606 4.77966 18.1543 5.50527 19.0733 6.42421C19.7904 7.14173 20.3538 7.99779 20.7291 8.94019C21.1045 9.88259 21.284 10.8916 21.2566 11.9056C21.1377 13.0812 20.5885 14.1715 19.7146 14.9669C18.8408 15.7623 17.7038 16.2067 16.5222 16.2149ZM12.0632 8.17092C13.0152 8.17092 13.7869 7.39919 13.7869 6.44721C13.7869 5.49524 13.0152 4.72351 12.0632 4.72351C11.1112 4.72351 10.3395 5.49524 10.3395 6.44721C10.3395 7.39919 11.1112 8.17092 12.0632 8.17092ZM15.1145 7.98187C15.2652 7.67617 15.5032 7.42202 15.7983 7.25153C15.9945 7.13822 16.211 7.06469 16.4356 7.03513C16.6602 7.00557 16.8884 7.02057 17.1072 7.07927C17.326 7.13797 17.5311 7.23921 17.7107 7.37722C17.8903 7.51522 18.041 7.68728 18.1541 7.88355C18.3242 8.17888 18.403 8.51801 18.3805 8.8581C18.3579 9.19819 18.2351 9.52397 18.0274 9.79424C17.8198 10.0645 17.5367 10.2672 17.2139 10.3766C16.8911 10.486 16.5431 10.4972 16.2139 10.4089C15.8847 10.3206 15.5891 10.1367 15.3644 9.88038C15.1397 9.62409 14.9961 9.30694 14.9516 8.96902C14.9071 8.63109 14.9638 8.28757 15.1145 7.98187ZM8.32889 7.25159C8.03357 7.08143 7.69443 7.00265 7.35434 7.02519C7.01425 7.04773 6.68848 7.17059 6.4182 7.37824C6.14792 7.58589 5.94527 7.86901 5.83586 8.1918C5.72645 8.5146 5.71519 8.86259 5.80351 9.19178C5.89183 9.52098 6.07577 9.8166 6.33206 10.0413C6.58835 10.266 6.90551 10.4096 7.24343 10.4541C7.58135 10.4986 7.92487 10.4419 8.23057 10.2911C8.53627 10.1404 8.79043 9.90246 8.96091 9.60733C9.07422 9.41118 9.14776 9.19462 9.17731 8.97004C9.20687 8.74545 9.19187 8.51724 9.13317 8.29846C9.07448 8.07968 8.97323 7.87461 8.83522 7.69498C8.69722 7.51535 8.52516 7.36468 8.32889 7.25159ZM4.72182 12.6944C4.85072 12.3785 5.07044 12.108 5.35317 11.9171C5.5399 11.7892 5.75015 11.6996 5.97175 11.6534C6.19335 11.6073 6.42189 11.6055 6.64417 11.6483C6.86645 11.691 7.07804 11.7774 7.26672 11.9024C7.45539 12.0275 7.6174 12.1887 7.74337 12.3768C7.93513 12.6589 8.03885 12.9916 8.04141 13.3327C8.04396 13.6739 7.94524 14.0081 7.75774 14.2931C7.57023 14.5781 7.30238 14.801 6.9881 14.9337C6.67381 15.0663 6.32723 15.1028 5.99223 15.0383C5.65723 14.9739 5.34888 14.8115 5.10622 14.5718C4.86356 14.332 4.6975 14.0256 4.62907 13.6914C4.56065 13.3572 4.59293 13.0102 4.72182 12.6944Z" fill="#DEDEDE"/>
</svg>
