<svg width="24" height="25" viewBox="0 0 24 25" fill="none" xmlns="http://www.w3.org/2000/svg">
<path d="M12 22.5405C11.8487 22.5413 11.6987 22.5123 11.5586 22.4551C11.4185 22.3979 11.2911 22.3136 11.1836 22.207L2.2493 13.2612C1.12862 12.1288 0.5 10.5999 0.5 9.00676C0.5 7.41357 1.12862 5.88472 2.2493 4.75233C3.37875 3.62607 4.9087 2.99361 6.50374 2.99361C8.09877 2.99361 9.62872 3.62607 10.7582 4.75233L12 5.99416L13.2418 4.75233C14.3713 3.62607 15.9012 2.99361 17.4963 2.99361C19.0913 2.99361 20.6212 3.62607 21.7507 4.75233C22.8714 5.88472 23.5 7.41357 23.5 9.00676C23.5 10.5999 22.8714 12.1288 21.7507 13.2612L12.8164 22.207C12.709 22.3136 12.5815 22.3979 12.4414 22.4551C12.3013 22.5123 12.1513 22.5413 12 22.5405ZM6.50374 5.29276C6.01698 5.29055 5.53462 5.38495 5.0846 5.57049C4.63459 5.75602 4.22586 6.029 3.88209 6.37361C3.18765 7.07171 2.79782 8.01634 2.79782 9.00101C2.79782 9.98568 3.18765 10.9303 3.88209 11.6284L12 19.7578L20.1179 11.6284C20.8124 10.9303 21.2022 9.98568 21.2022 9.00101C21.2022 8.01634 20.8124 7.07171 20.1179 6.37361C19.4092 5.70407 18.4712 5.33104 17.4963 5.33104C16.5213 5.33104 15.5833 5.70407 14.8746 6.37361L12.8164 8.44334C12.7095 8.55111 12.5823 8.63665 12.4422 8.69503C12.3021 8.7534 12.1518 8.78346 12 8.78346C11.8482 8.78346 11.6979 8.7534 11.5578 8.69503C11.4177 8.63665 11.2905 8.55111 11.1836 8.44334L9.12538 6.37361C8.78161 6.029 8.37288 5.75602 7.92287 5.57049C7.47285 5.38495 6.99049 5.29055 6.50374 5.29276Z" fill="#DEDEDE"/>
</svg>
