<svg width="24" height="25" viewBox="0 0 24 25" fill="none" xmlns="http://www.w3.org/2000/svg">
<path fill-rule="evenodd" clip-rule="evenodd" d="M16.8 6.76704L20.4 6.76704C22.392 6.76704 24 8.37504 24 10.367L24 19.967C24 21.959 22.392 23.567 20.4 23.567L3.6 23.567C1.608 23.567 0 21.959 0 19.967L0 10.367C0 8.37504 1.608 6.76704 3.6 6.76704H7.2V4.96704C7.2 3.31104 8.544 1.96704 10.2 1.96704L13.8 1.96704C15.456 1.96704 16.8 3.31104 16.8 4.96704V6.76704ZM10.2 4.36704C9.864 4.36704 9.6 4.63104 9.6 4.96704V6.76704L14.4 6.76704V4.96704C14.4 4.63104 14.136 4.36704 13.8 4.36704H10.2ZM20.4 21.167C21.06 21.167 21.6 20.627 21.6 19.967L21.6 10.367C21.6 9.70704 21.06 9.16704 20.4 9.16704L3.6 9.16704C2.94 9.16704 2.4 9.70704 2.4 10.367L2.4 19.967C2.4 20.627 2.94 21.167 3.6 21.167L20.4 21.167ZM13.1399 13.6911H15.2879C15.6479 13.6911 15.9359 13.9791 15.9359 14.3391V15.3231C15.9359 15.6831 15.6479 15.9711 15.2879 15.9711H13.1399V18.1191C13.1399 18.4791 12.8519 18.7671 12.4919 18.7671H11.5079C11.1479 18.7671 10.8599 18.4791 10.8599 18.1191V15.9711H8.71191C8.35191 15.9711 8.06391 15.6831 8.06391 15.3231V14.3391C8.06391 13.9791 8.35191 13.6911 8.71191 13.6911H10.8599V11.5431C10.8599 11.1831 11.1479 10.8951 11.5079 10.8951H12.4919C12.8519 10.8951 13.1399 11.1831 13.1399 11.5431V13.6911Z" fill="#DEDEDE"/>
</svg>
