<svg width="32" height="28" viewBox="0 0 32 28" fill="none" xmlns="http://www.w3.org/2000/svg">
<path d="M16 27.1729C15.796 27.174 15.5938 27.1349 15.405 27.0578C15.2162 26.9807 15.0445 26.8671 14.8996 26.7234L2.85776 14.666C1.34727 13.1398 0.5 11.0791 0.5 8.9318C0.5 6.78446 1.34727 4.72384 2.85776 3.19757C4.38006 1.67956 6.44217 0.827118 8.59199 0.827118C10.7418 0.827118 12.8039 1.67956 14.3262 3.19757L16 4.87135L17.6738 3.19757C19.1961 1.67956 21.2582 0.827118 23.408 0.827118C25.5578 0.827118 27.6199 1.67956 29.1422 3.19757C30.6527 4.72384 31.5 6.78446 31.5 8.9318C31.5 11.0791 30.6527 13.1398 29.1422 14.666L17.1004 26.7234C16.9555 26.8671 16.7838 26.9807 16.595 27.0578C16.4062 27.1349 16.204 27.174 16 27.1729Z" fill="#FDAAA2"/>
</svg>
