<svg width="20" height="20" viewBox="0 0 20 20" fill="none" xmlns="http://www.w3.org/2000/svg">
<path d="M12.2315 9.99863L19.0369 3.20912C19.3349 2.91111 19.5023 2.50691 19.5023 2.08545C19.5023 1.66399 19.3349 1.25979 19.0369 0.961778C18.7388 0.663762 18.3346 0.496338 17.9132 0.496338C17.4917 0.496338 17.0875 0.663762 16.7895 0.961778L10 7.76712L3.21048 0.961778C2.91247 0.663762 2.50827 0.496338 2.08681 0.496338C1.66535 0.496338 1.26115 0.663762 0.963137 0.961778C0.66512 1.25979 0.497696 1.66399 0.497696 2.08545C0.497696 2.50691 0.66512 2.91111 0.963137 3.20912L7.76848 9.99863L0.963137 16.7881C0.814798 16.9353 0.69706 17.1103 0.616711 17.3032C0.536363 17.496 0.494995 17.7029 0.494995 17.9118C0.494995 18.1207 0.536363 18.3276 0.616711 18.5205C0.69706 18.7133 0.814798 18.8884 0.963137 19.0355C1.11026 19.1838 1.2853 19.3016 1.47816 19.3819C1.67102 19.4623 1.87788 19.5036 2.08681 19.5036C2.29574 19.5036 2.5026 19.4623 2.69545 19.3819C2.88831 19.3016 3.06335 19.1838 3.21048 19.0355L10 12.2302L16.7895 19.0355C16.9366 19.1838 17.1117 19.3016 17.3045 19.3819C17.4974 19.4623 17.7043 19.5036 17.9132 19.5036C18.1221 19.5036 18.329 19.4623 18.5218 19.3819C18.7147 19.3016 18.8897 19.1838 19.0369 19.0355C19.1852 18.8884 19.3029 18.7133 19.3833 18.5205C19.4636 18.3276 19.505 18.1207 19.505 17.9118C19.505 17.7029 19.4636 17.496 19.3833 17.3032C19.3029 17.1103 19.1852 16.9353 19.0369 16.7881L12.2315 9.99863Z" fill="#262626"/>
</svg>
